<svg viewBox="-650 -400 1000 800" xmlns="http://www.w3.org/2000/svg"><g fill="#61b5cc"><path d="m-280-90 280 280 280-280z" transform="matrix(.70710678 -.70710678 -.70710678 -.70710678 -283 -275)"/><path d="m-280-90 280 280 280-280z" transform="matrix(-.70710678 -.70710678 -.70710678 .70710678 -283 275)"/><path d="m-198-66 198 198 198-198z" transform="matrix(.70710678 .70710678 .70710678 -.70710678 55 55)"/></g><path d="m-130 0 130-130 130 130-130 130z" fill="#8dd737" transform="matrix(1 0 0 -1 0 260)"/><path d="m-191 61h260l122-122h-260z" fill="#8dd737" transform="matrix(.70710678 -.70710678 -.70710678 -.70710678 -47 -150)"/><g fill="#efa501"><path d="m-130-44 130 130 130-130z" transform="matrix(1 0 0 -1 0 -310)"/><path d="m-130-44 130 130 130-130z" transform="matrix(0 -1 -1 0 -310 0)"/></g></svg>