<!DOCTYPE svg PUBLIC "-//W3C//DTD SVG 1.1//EN" "http://www.w3.org/Graphics/SVG/1.1/DTD/svg11.dtd">
<svg version="1.1" xmlns="http://www.w3.org/2000/svg" xmlns:xlink="http://www.w3.org/1999/xlink" xml:space="preserve" viewBox="-650 -400 1000 800">
<g transform="scale(1 -1)"><polygon fill="#212529" points="-280,-90 0,190 280,-90" transform="translate(-283 275) rotate(45)"></polygon><polygon fill="#212529" points="-280,-90 0,190 280,-90" transform="translate(-283 -275) rotate(-225)"></polygon><polygon fill="#212529" points="-198,-66 0,132 198,-66" transform="translate(55 -55) rotate(-45)"></polygon><polygon fill="#212529" points="-130,0 0,-130 130,0 0,130" transform="translate(0 -260) rotate(0)"></polygon><polygon fill="#212529" points="-191,61 69,61 191,-61 -69,-61" transform="translate(-47 150) rotate(45)"></polygon><polygon fill="#212529" points="-130,-44 0,86  130,-44" transform="translate(0 310) rotate(0)"></polygon><polygon fill="#212529" points="-130,-44 0,86  130,-44" transform="translate(-310 0) rotate(-270)"></polygon></g></svg>